<svg width="25" height="24" viewBox="0 0 25 24" fill="none" xmlns="http://www.w3.org/2000/svg">
<path d="M17.72 2H8.07997C5.94997 2 4.21997 3.74 4.21997 5.86V19.95C4.21997 21.75 5.50997 22.51 7.08997 21.64L11.97 18.93C12.49 18.64 13.33 18.64 13.84 18.93L18.72 21.64C20.3 22.52 21.59 21.76 21.59 19.95V5.86C21.58 3.74 19.85 2 17.72 2ZM15.4 11.4H10.4C9.98997 11.4 9.64997 11.06 9.64997 10.65C9.64997 10.24 9.98997 9.9 10.4 9.9H15.4C15.81 9.9 16.15 10.24 16.15 10.65C16.15 11.06 15.81 11.4 15.4 11.4Z" fill="#3366FF"/>
</svg>
