<svg width="20" height="20" viewBox="0 0 20 20" fill="none" xmlns="http://www.w3.org/2000/svg">
<path d="M7.89166 12.7334C7.73333 12.7334 7.575 12.6751 7.45 12.5501C6.76666 11.8667 6.39166 10.9584 6.39166 10.0001C6.39166 8.00839 8.00833 6.39172 10 6.39172C10.9583 6.39172 11.8667 6.76672 12.55 7.45006C12.6667 7.56672 12.7333 7.72506 12.7333 7.89172C12.7333 8.05839 12.6667 8.21672 12.55 8.33339L8.33333 12.5501C8.20833 12.6751 8.05 12.7334 7.89166 12.7334ZM10 7.64172C8.7 7.64172 7.64166 8.70006 7.64166 10.0001C7.64166 10.4167 7.75 10.8167 7.95 11.1667L11.1667 7.95006C10.8167 7.75006 10.4167 7.64172 10 7.64172Z" fill="#292D32"/>
<path d="M4.66666 15.4249C4.52499 15.4249 4.37499 15.3749 4.25833 15.2749C3.36666 14.5166 2.56666 13.5833 1.88333 12.4999C0.999992 11.1249 0.999992 8.88328 1.88333 7.49994C3.91666 4.31661 6.87499 2.48328 9.99999 2.48328C11.8333 2.48328 13.6417 3.11661 15.225 4.30828C15.5 4.51661 15.5583 4.90828 15.35 5.18328C15.1417 5.45828 14.75 5.51661 14.475 5.30828C13.1083 4.27494 11.5583 3.73328 9.99999 3.73328C7.30833 3.73328 4.73333 5.34994 2.93333 8.17494C2.30833 9.14994 2.30833 10.8499 2.93333 11.8249C3.55833 12.7999 4.27499 13.6416 5.06666 14.3249C5.32499 14.5499 5.35833 14.9416 5.13333 15.2083C5.01666 15.3499 4.84166 15.4249 4.66666 15.4249Z" fill="#292D32"/>
<path d="M10 17.5167C8.89168 17.5167 7.80834 17.2917 6.76668 16.85C6.45001 16.7167 6.30001 16.35 6.43334 16.0334C6.56668 15.7167 6.93334 15.5667 7.25001 15.7C8.13334 16.075 9.05834 16.2667 9.99168 16.2667C12.6833 16.2667 15.2583 14.65 17.0583 11.825C17.6833 10.85 17.6833 9.15004 17.0583 8.17504C16.8 7.76671 16.5167 7.37504 16.2167 7.00837C16 6.74171 16.0417 6.35004 16.3083 6.12504C16.575 5.90837 16.9667 5.94171 17.1917 6.21671C17.5167 6.61671 17.8333 7.05004 18.1167 7.50004C19 8.87504 19 11.1167 18.1167 12.5C16.0833 15.6834 13.125 17.5167 10 17.5167Z" fill="#292D32"/>
<path d="M10.575 13.5584C10.2834 13.5584 10.0167 13.35 9.95836 13.05C9.89169 12.7084 10.1167 12.3834 10.4584 12.325C11.375 12.1584 12.1417 11.3917 12.3084 10.475C12.375 10.1334 12.7 9.91671 13.0417 9.97504C13.3834 10.0417 13.6084 10.3667 13.5417 10.7084C13.275 12.15 12.125 13.2917 10.6917 13.5584C10.65 13.55 10.6167 13.5584 10.575 13.5584Z" fill="#292D32"/>
<path d="M1.66668 18.9584C1.50835 18.9584 1.35001 18.9001 1.22501 18.7751C0.983346 18.5334 0.983346 18.1334 1.22501 17.8917L7.45001 11.6667C7.69168 11.4251 8.09168 11.4251 8.33335 11.6667C8.57501 11.9084 8.57501 12.3084 8.33335 12.5501L2.10835 18.7751C1.98335 18.9001 1.82501 18.9584 1.66668 18.9584Z" fill="#292D32"/>
<path d="M12.1083 8.51662C11.95 8.51662 11.7917 8.45829 11.6667 8.33329C11.425 8.09162 11.425 7.69162 11.6667 7.44995L17.8917 1.22495C18.1333 0.983285 18.5333 0.983285 18.775 1.22495C19.0167 1.46662 19.0167 1.86662 18.775 2.10828L12.55 8.33329C12.425 8.45829 12.2667 8.51662 12.1083 8.51662Z" fill="#292D32"/>
</svg>
