<svg width="24" height="25" viewBox="0 0 24 25" fill="none" xmlns="http://www.w3.org/2000/svg">
<path d="M16.8201 2.5H7.18007C5.05007 2.5 3.32007 4.24 3.32007 6.36V20.45C3.32007 22.25 4.61007 23.01 6.19007 22.14L11.0701 19.43C11.5901 19.14 12.4301 19.14 12.9401 19.43L17.8201 22.14C19.4001 23.02 20.6901 22.26 20.6901 20.45V6.36C20.6801 4.24 18.9501 2.5 16.8201 2.5ZM14.5001 11.9H9.50007C9.09007 11.9 8.75007 11.56 8.75007 11.15C8.75007 10.74 9.09007 10.4 9.50007 10.4H14.5001C14.9101 10.4 15.2501 10.74 15.2501 11.15C15.2501 11.56 14.9101 11.9 14.5001 11.9Z" fill="#3366FF"/>
</svg>
