<svg width="33" height="32" viewBox="0 0 33 32" fill="none" xmlns="http://www.w3.org/2000/svg">
<path d="M27.8335 13.5867H23.9802C20.8202 13.5867 18.2468 11.0134 18.2468 7.85341V4.00008C18.2468 3.26675 17.6468 2.66675 16.9135 2.66675H11.2602C7.1535 2.66675 3.8335 5.33341 3.8335 10.0934V21.9067C3.8335 26.6667 7.1535 29.3334 11.2602 29.3334H21.7402C25.8468 29.3334 29.1668 26.6667 29.1668 21.9067V14.9201C29.1668 14.1867 28.5668 13.5867 27.8335 13.5867ZM15.8735 18.0401C15.6735 18.2401 15.4202 18.3334 15.1668 18.3334C14.9135 18.3334 14.6602 18.2401 14.4602 18.0401L13.5002 17.0801V22.6667C13.5002 23.2134 13.0468 23.6667 12.5002 23.6667C11.9535 23.6667 11.5002 23.2134 11.5002 22.6667V17.0801L10.5402 18.0401C10.1535 18.4267 9.5135 18.4267 9.12683 18.0401C8.74016 17.6534 8.74016 17.0134 9.12683 16.6267L11.7935 13.9601C11.8868 13.8801 11.9802 13.8134 12.0868 13.7601C12.1135 13.7467 12.1535 13.7334 12.1802 13.7201C12.2602 13.6934 12.3402 13.6801 12.4335 13.6667C12.4735 13.6667 12.5002 13.6667 12.5402 13.6667C12.6468 13.6667 12.7535 13.6934 12.8602 13.7334C12.8735 13.7334 12.8735 13.7334 12.8868 13.7334C12.9935 13.7734 13.1002 13.8534 13.1802 13.9334C13.1935 13.9467 13.2068 13.9467 13.2068 13.9601L15.8735 16.6267C16.2602 17.0134 16.2602 17.6534 15.8735 18.0401Z" fill="#3366FF"/>
<path d="M23.7399 11.7466C25.0066 11.7599 26.7666 11.7599 28.2732 11.7599C29.0332 11.7599 29.4332 10.8666 28.8999 10.3332C26.9799 8.39991 23.5399 4.91991 21.5666 2.94658C21.0199 2.39991 20.0732 2.77324 20.0732 3.53324V8.18658C20.0732 10.1332 21.7266 11.7466 23.7399 11.7466Z" fill="#3366FF"/>
</svg>
